<mxfile host="app.diagrams.net" modified="2024-06-04T12:14:41.464Z" agent="Mozilla/5.0 (Windows NT 10.0; Win64; x64; rv:109.0) Gecko/20100101 Firefox/115.0" etag="7rLzO5CoXTMoOm2lV9sd" version="24.4.13" type="github">
  <diagram name="Page-1" id="S4iGcN87YycN1-mO8-58">
    <mxGraphModel dx="1434" dy="746" grid="1" gridSize="10" guides="1" tooltips="1" connect="1" arrows="1" fold="1" page="1" pageScale="1" pageWidth="827" pageHeight="1169" math="0" shadow="0">
      <root>
        <mxCell id="0" />
        <mxCell id="1" parent="0" />
        <mxCell id="Qmwp_-XaxjS77FFdiGAR-1" value="&lt;h1 style=&quot;margin-top: 0px;&quot;&gt;Statistique descriptive&lt;br&gt;&lt;/h1&gt;&lt;p&gt;Traitement des donnÃ©es&lt;br&gt;&lt;/p&gt;" style="text;html=1;whiteSpace=wrap;overflow=hidden;rounded=0;" vertex="1" parent="1">
          <mxGeometry x="320" y="330" width="150" height="100" as="geometry" />
        </mxCell>
      </root>
    </mxGraphModel>
  </diagram>
</mxfile>
